<?xml version="1.0" encoding="utf-8"?>
<!-- Generator: Adobe Illustrator 17.1.0, SVG Export Plug-In . SVG Version: 6.00 Build 0)  -->
<!DOCTYPE svg PUBLIC "-//W3C//DTD SVG 1.1//EN" "http://www.w3.org/Graphics/SVG/1.1/DTD/svg11.dtd">
<svg version="1.1" id="Layer_1" xmlns="http://www.w3.org/2000/svg" xmlns:xlink="http://www.w3.org/1999/xlink" x="0px" y="0px"
	 viewBox="0 0 513 513.1" enable-background="new 0 0 513 513.1" xml:space="preserve">
<g>
	<g opacity="1">
		<path fill="#4D90FE" d="M493.1,326.9c-4.6-18.4-26-21.9-40.9-15.4c-13.9,6.1-19.3,19.3-17.7,34.3c2.3,21.7,17.2,31.5,40.3,27.5
			c-28.4,58.5-100.1,123.3-199.3,130.6c-106.6,7.8-196.2-52.2-237.1-131.2c18.3,2.3,36.6,2.8,54.6-1.5c24.7-5.9,45.4-18.2,58.9-40.3
			c17-27.8,2.4-58.3-29.8-63.1c-15.2-2.3-30.5-2.4-45.8-2.8c-11.5-0.3-23-0.3-34.3-2c-2-0.3-3.9-0.8-5.8-1.6
			c-5.5-2.2-7.7-6.8-5.9-12.4c2.1-6.4,6.4-11.2,11.1-15.7c1.8-1.8,3.6-0.9,5.6-0.5c16.9,3.6,33.8,4,50.2-1.8
			c39.7-13.9,49.2-55.6,31.2-84.7c-0.3-0.4-0.3-0.9-0.8-2.2c8.7,0,17,0,25.4,0c2.7,0,6.2,0.8,7.2-2.8c1.3-4.5,1.8-9.2-1-13.5
			c-1.1-1.7-3.3-1.2-5.1-1.2c-12.7,0-25.3,0-38,0c-1.8,0-3.5,0-5.2-1.2c-15.1-10.5-32.1-12.9-50-11.7c-1.5,0.1-3,0.2-4.5,0.2
			c-0.3,0-0.6-0.2-0.8-0.4c98.5-140.1,308.8-139.3,406.4,5c-2.4,0-4.5,0.1-6.6,0c-2.2-0.1-3.8,0-3.8,3c0,2.8,0.9,3.8,3.7,3.7
			c17.8-0.3,17.8,8.8,12.9,20.8c-13.1,32.1-26.2,64.2-39.3,96.3c-0.4,0.9-0.4,2-2.1,2.5c-1.6-3.8-3.3-7.7-5-11.6
			c-11.5-27.2-22.9-54.4-34.4-81.7c-0.9-2.1-1.6-4.4-2.2-6.6c-3.5-13.1,1.3-19.4,14.8-19.9c1.4-0.1,3.1,0.7,4.1-1
			c1.5-2.4-0.3-5.7-3.3-5.7c-24.8,0-49.7,0-74.5,0c-1.9,0-3.7-0.2-3.5,2.7c0.1,2.2-0.3,4.2,2.9,4.6c12.7,1.6,20.2,9.6,25,20.9
			c15,35.6,30.1,71.2,45.1,106.8c5.4,12.7,10.8,25.3,16,38.1c1.3,3.3,3.1,4.3,6.6,4.4c3.5,0.1,4.8-1.4,6-4.4
			c18.9-46,38-92,57.3-138.6c3.4,6,5.6,12.1,7.7,18.1c18.2,50.5,20.3,101.7,5.6,153.5C494.3,325.6,493.7,326.3,493.1,326.9z
			 M253.3,296.3c21.4-0.5,46.3-14.9,61-45c16.3-33.4,18.1-66.9-1.9-99.8c-29.5-48.6-94.9-48.2-125.2-13.8
			c-27,30.6-34.4,66.7-19.8,105.4C180.4,278,207.1,296.3,253.3,296.3z M252.3,320.3c-0.5-0.4-1.1-0.8-1.6-1.1c0-1.8,0-3.6,0-5.5
			c0-5.2-0.9-6-5.8-4.5c-5.7,1.7-11.3,3.8-17,5.6c-1.2,0.4-2.4,0.7-2.1,2.2c0.3,1.6,1.7,1.2,2.8,1.1c7.5-0.3,8.3,0.4,8.3,7.9
			c0.1,20.5,0,41,0,61.5c0,8.8-0.5,9.3-9.2,11.1c-1,0.2-2.7-0.4-2.6,1.4c0.1,1.7,1.8,1.1,2.8,1.1c10.2,0.1,20.3,0.1,30.5,0
			c1.2,0,3.1,0.8,3.4-1c0.4-2.4-2-1.7-3.2-1.9c-3.5-0.5-7.3-1-7.5-5.1c-0.5-7.5-0.1-15-0.1-22.8c13.3,6.4,27.1,5.1,36.6-4
			c10.5-9.9,12.9-22.6,10.1-36.2c-2.1-10-7.6-17.8-18-20.7c-10.2-2.8-19.1-0.3-26,7.9C253,318.3,252.7,319.4,252.3,320.3z
			 M368.6,360.6c-1.2,0.8-1.9,1.2-2.6,1.6c-2,1.3-3.8,3.9-6.5,2.8c-3.1-1.3-2.3-4.6-2.3-7.1c-0.2-10.8-0.1-21.7-0.2-32.5
			c-0.1-9-3.7-13.6-12.3-15.7c-7.7-1.9-15.5-1.9-23.2,0.3c-5.3,1.5-9.8,4.2-12.4,9.3c-1.7,3.3-2.1,6.7,0.5,9.8
			c2.3,2.7,5.5,2.5,8.3,1.5c3.7-1.3,3.8-4.6,3.5-7.9c-0.3-3.3,0.7-6,3.6-7.6c4.4-2.5,9-2.5,13.3,0.1c5.4,3.2,5.4,9.1,5.3,14.2
			c-0.1,4.2-5.1,2.9-7.7,4.5c-0.6,0.3-1.2,0.5-1.9,0.7c-8.8,3.5-18,6.1-24.9,13.2c-4.6,4.8-5,10.3-3.1,16.2c2,5.9,6.4,9.2,12.5,10
			c6.1,0.8,11.9-0.3,17.1-4c2.5-1.8,5.1-3.4,7.8-5.2c1.3,7.9,4.1,10.1,11.2,9.3C361.5,373.4,369,366.5,368.6,360.6z M370,341.3
			c0,21,12.3,33.5,32.5,32.9c12.2-0.4,24.6-11.5,26.3-23.5c0.2-1.2,0.3-2.4-1.1-2.9c-1.2-0.4-1.9,0.4-2.4,1.2
			c-0.7,1.1-1.2,2.4-1.9,3.5c-6.7,10.6-21.8,13.2-30.7,5.3c-9-8-12.2-22.9-7.3-33.9c3.1-6.8,9.3-10.8,16.1-10.6
			c7,0.2,9,4.7,10.2,10.7c0.6,3.1,3.1,5.1,6.5,5.1c3.2,0,6.7,0.6,8.3-3c1.5-3.3,0.6-6.5-1.7-9.3c-2.4-2.8-5.3-5-8.8-6.2
			C393.1,302.8,369.1,317.4,370,341.3z M220,319.6c0-2.7-0.1-5.3,0-8c0.1-3-1.8-4-3.5-2.1c-2.6,3.1-5.1,1.5-7.7,0.8
			c-6.2-1.8-12.4-2.4-18.7-0.5c-7.3,2.2-12,7.1-13.1,14.8c-1,7.4,2.2,12.9,8.7,16.4c2.3,1.2,4.7,2.5,7,3.6c5.2,2.5,10.7,4.7,15.5,8
			c6,4.1,6.2,11,0.6,14.9c-2.8,1.9-5.9,2.3-9.1,1.9c-8.9-0.9-15.1-5.6-18.3-14c-0.4-1.2-0.5-2.7-2.4-2.6c-1.6,0.1-1.9,1-1.9,2.3
			c0,5.7,0,11.3,0,17c0,2.4,2,3.3,3.2,1.8c2.8-3.3,5.6-1.7,8.6-1c9.8,2,19.4,3,28.3-3.1c10.1-6.9,10.6-19.8,0.9-27.3
			c-5.9-4.6-12.9-6.6-19.6-9.7c-3.2-1.5-6.4-2.8-8.9-5.4c-4.7-4.7-3.6-10.1,2.4-12.8c7.3-3.2,16.8,0,20.7,7.1
			c1.3,2.3,2.2,4.8,3.3,7.2c0.5,1,1.3,1.5,2.4,1.4c1.4-0.1,1.3-1.3,1.3-2.2C220,325.3,220,322.4,220,319.6z"/>
		<path fill="#4D90FE" d="M81.3,350.5c-17.3-0.2-31.8-1.5-45.8-6.5c-8.7-3.1-13.3-8.2-16.5-17.2c-4.3-12,1.1-19.7,7.2-28.4
			c4.2-6,8.8-6.8,15.6-6c16.7,2,33.5,2.3,50.3,2.9c11.8,0.4,23.6,0.4,35.3,2.9c1.6,0.3,3.3,0.6,4.8,1.1
			c10.4,3.2,14.5,11.1,10.6,21.4c-4.6,12.2-14.3,19.3-25.9,24C104.6,349.7,91.6,350.2,81.3,350.5z"/>
		<path fill="#4D90FE" d="M103.1,182.1c0.3,6.5-0.4,14.1-2.9,21.4c-3.8,11.7-11.4,19.4-23.8,21.5c-13.2,2.3-23.5-2.9-30.9-13.7
			c-10.3-15.1-12-32.4-11-50.1c0.5-8.2,2-16.2,6.5-23.3c12.6-19.7,38.7-19.1,51.5,1.1C99.7,150.2,103,163.4,103.1,182.1z"/>
		<path fill="#4D90FE" d="M469.1,334.4c6.3,0,12.7,0.2,19-0.1c4.1-0.2,4,1.3,2.7,4.3c-2.4,5.8-4.7,11.7-6.9,17.6
			c-1,2.7-2.9,4.3-5.6,5.1c-16.1,4.8-31.3-6.8-32.3-24.4c-0.1-2.5,1.3-2.6,3.1-2.6C455.8,334.5,462.4,334.4,469.1,334.4z"/>
		<path fill="#4D90FE" d="M446.2,329.8c2.1-14.1,15-20.4,25.2-13.1c1.7,1.2,2.9,2.8,3.8,4.5c3.5,6.6,2.4,8.6-4.9,8.6
			C462.4,329.8,454.4,329.8,446.2,329.8z"/>
		<path fill="#4D90FE" d="M9.8,244.9c0.1-9,1.4-17.8,2.6-26.7c0.2-1.1-0.2-2.9,1.6-3.2c1.4-0.3,2.1,0.9,2.9,1.7
			c3.7,3.9,8,7,12.6,9.5c2.5,1.4,2.7,2.2,0.5,4.1c-6.8,5.8-13.5,11.7-19,18.9C9.3,248.1,10.6,246.2,9.8,244.9z"/>
		<path fill="#4D90FE" d="M10.5,282.7c3.8,2.6,6.9,4.7,10.2,6.9c-2.4,2.5-4.7,5-7.9,8.3C12,292.4,11.3,288,10.5,282.7z"/>
		<path fill="#4D90FE" d="M9.8,244.9c0.7,1.3-0.5,3.2,1.3,4.3c-0.2,1-0.4,1.9-2,2.3C9.1,249.2,8.7,247,9.8,244.9z"/>
		<path fill="#4D90FE" d="M493.1,326.9c0.6-0.7,1.2-1.3,1.9-2c-0.1,0.8,0,1.6-0.2,2.4c-0.2,0.8-0.7,1.4-1,2.2
			C492.6,328.8,493,327.8,493.1,326.9z"/>
		<path fill="#4D90FE" d="M291,216.9c-0.2,13.2-0.9,26.3-5.2,38.8c-4.9,14.1-14,24.2-29.2,27c-16.3,3-29-3.5-38.7-16.2
			c-12.5-16.3-18.1-35.3-20.5-55.4c-2.2-18.6-2.2-37.2,4-55.2c5.6-16.3,16-27.6,34.2-29.2c15.2-1.3,26.6,5.7,35.5,17.4
			c11.5,15.2,16.5,32.7,18.7,51.3C290.6,202.5,291.2,209.7,291,216.9z"/>
		<path fill="#4D90FE" d="M284.1,344.8c0.2,6.1-0.8,11.9-4.2,17.1c-5.7,8.8-18.1,10.2-25.5,3c-2.2-2.2-3.5-4.8-3.5-7.9
			c-0.1-9.1-0.4-18.3-0.1-27.4c0.2-5.5,5.2-7.4,9.2-9.4c5.2-2.7,10.6-2.2,15.3,1.8C282.3,327.9,284,336,284.1,344.8z"/>
		<path fill="#4D90FE" d="M343.8,348.1c0,0.8,0.1,1.7,0,2.5c-0.5,3,1.5,6.7-1.3,9c-3.7,3-8,5.5-13,5.9c-4.4,0.3-7.8-2.1-9.6-5.9
			c-1.8-3.8-1.5-7.8,1.4-11.2c5.4-6.3,13.3-8,20.4-10.9c1.5-0.6,2.1,0.2,2,1.7C343.7,342.1,343.8,345.1,343.8,348.1z"/>
	</g>
	<g>
	</g>
</g>
</svg>
